<?xml version="1.0" encoding="utf-8"?>
<!-- Generator: Adobe Illustrator 16.0.0, SVG Export Plug-In . SVG Version: 6.00 Build 0)  -->
<!DOCTYPE svg PUBLIC "-//W3C//DTD SVG 1.1//EN" "http://www.w3.org/Graphics/SVG/1.1/DTD/svg11.dtd">
<svg version="1.1" id="Layer_1" xmlns="http://www.w3.org/2000/svg" xmlns:xlink="http://www.w3.org/1999/xlink" x="0px" y="0px"
	 width="192px" height="299.407px" viewBox="0 0 192 299.407" enable-background="new 0 0 192 299.407" xml:space="preserve">
<image overflow="visible" width="819" height="691" xlink:href="../../../../../1gMK.png"  transform="matrix(1 0 0 1 -1184.5 -370.7026)">
</image>
<polygon fill="none" stroke="#231F20" stroke-miterlimit="10" points="-915.5,-681.593 -838.25,-681.593 -867,-554.093 
	-924,-554.093 -923.5,-554.093 -980.5,-554.093 -1009.25,-681.593 -932,-681.593 "/>
<path fill="none" stroke="#231F20" stroke-miterlimit="10" d="M-923.75-685.51c0,0-0.007-51.833,0-73.5
	c0.005-17.145,3.083-42.333,50.25-51.833"/>
<path fill="none" stroke="#231F20" stroke-miterlimit="10" d="M-923.756-681.593c0,0,0.006-28.31,0-39.875
	c-0.005-9.15-17.577-36.875-49.744-40.875"/>
<path fill="none" stroke="#231F20" stroke-miterlimit="10" d="M-954.25-738.843c0,0-32,27.75-57.75-27.5c0,0,38.25-48.25,64.5-5.5"
	/>
<path fill="none" stroke="#231F20" stroke-miterlimit="10" d="M-906.167-817.843c0,0,10.833-42.833,64.667-8
	c0,0-4.667,62.5-50.333,42.333"/>
<polygon fill="none" stroke="#BBC7C8" stroke-width="5" stroke-linecap="round" stroke-linejoin="round" stroke-miterlimit="10" points="
	103.89,164.407 181.14,164.407 152.39,291.907 95.39,291.907 95.89,291.907 38.89,291.907 10.14,164.407 87.39,164.407 "/>
<path fill="none" stroke="#BBC7C8" stroke-width="5" stroke-linecap="round" stroke-linejoin="round" stroke-miterlimit="10" d="
	M95.64,160.491c0,0-0.007-51.834,0-73.5c0.005-17.145,3.083-42.334,50.25-51.834"/>
<path fill="none" stroke="#BBC7C8" stroke-width="5" stroke-linecap="round" stroke-linejoin="round" stroke-miterlimit="10" d="
	M95.634,164.407c0,0,0.006-28.311,0-39.875c-0.005-9.15-17.577-36.875-49.744-40.875"/>
<path fill="none" stroke="#BBC7C8" stroke-width="5" stroke-linecap="round" stroke-linejoin="round" stroke-miterlimit="10" d="
	M65.14,107.157c0,0-32,27.75-57.75-27.5c0,0,38.25-48.25,64.5-5.5"/>
<path fill="none" stroke="#BBC7C8" stroke-width="5" stroke-linecap="round" stroke-linejoin="round" stroke-miterlimit="10" d="
	M113.224,28.157c0,0,10.833-42.833,64.667-8c0,0-4.667,62.5-50.333,42.334"/>
</svg>
